# xmcd
#
# Track frame offsets: 
#        150
#        12547
#        23810
#        39971
#        57468
#        76675
#        91114
#        102438
#        118587
#        126770
#        144181
#        159954
#        175464
#        193339
#        207727
#        226311
#        241322
#
# Disc length: 3406 seconds
#
# Revision: 8
# Processed by: cddbd v1.5.1PL0 Copyright (c) Steve Scherf et al.
# Submitted via: ExactAudioCopy v0.95b3
#
DISCID=df0d4c11
DTITLE=Tom Waits - Frank's Wild Years
DYEAR=1987
DGENRE=Rock
TTITLE0=Hang On St. Christopher
TTITLE1=Straight To The Top (Rhumba)
TTITLE2=Blow Wind Blow
TTITLE3=Temptation
TTITLE4=Innocent When You Dream (Bar Room)
TTITLE5=I'll Be Gone
TTITLE6=Yesterday Is Here
TTITLE7=Please Wake Me Up
TTITLE8=Frank's Theme
TTITLE9=More Than Rain
TTITLE10=Way Down In The Hole
TTITLE11=Straight To The Top (Vegas)
TTITLE12=I'll Take New York
TTITLE13=Telephone Call From Istanbul
TTITLE14=Cold Cold Ground
TTITLE15=Train Song
TTITLE16=Innocent When You Dream (78)
EXTD=Island Records 422-842357-2\nUn Operaci Romantico in Two Acts\nAc
EXTD=t 1:Tracks 1-9 - Act 2: Tracks 10-17\nAct 2: Tracks 10-17
EXTT0=
EXTT1=
EXTT2=
EXTT3=
EXTT4=
EXTT5=
EXTT6=
EXTT7=
EXTT8=
EXTT9=
EXTT10=
EXTT11=
EXTT12=
EXTT13=
EXTT14=
EXTT15=
EXTT16=
PLAYORDER=
